{
	"asset":{
		"generator":"Khronos glTF Blender I/O v3.5.30",
		"version":"2.0"
	},
	"extensionsUsed":[
		"KHR_materials_specular",
		"KHR_materials_ior"
	],
	"scene":0,
	"scenes":[
		{
			"name":"Scene",
			"nodes":[
				0
			]
		}
	],
	"nodes":[
		{
			"mesh":0,
			"name":"SM_AirConditioning_01_LOD0.001",
			"scale":[
				0.006497782655060291,
				0.006497782655060291,
				0.006497782655060291
			],
			"translation":[
				0,
				0,
				-1.1174232959747314
			]
		}
	],
	"materials":[
		{
			"doubleSided":true,
			"extensions":{
				"KHR_materials_specular":{
					"specularColorFactor":[
						2.371357614441398,
						2.371357614441398,
						2.371357614441398
					]
				},
				"KHR_materials_ior":{
					"ior":1.4500000476837158
				}
			},
			"name":"MI_AirConditioning_01",
			"normalTexture":{
				"index":0
			},
			"pbrMetallicRoughness":{
				"baseColorTexture":{
					"index":1
				},
				"metallicRoughnessTexture":{
					"index":2
				}
			}
		}
	],
	"meshes":[
		{
			"name":"SM_AirConditioning_01.003",
			"primitives":[
				{
					"attributes":{
						"POSITION":0,
						"TEXCOORD_0":1,
						"TEXCOORD_1":2,
						"NORMAL":3
					},
					"indices":4,
					"material":0
				}
			]
		}
	],
	"textures":[
		{
			"sampler":0,
			"source":0
		},
		{
			"sampler":0,
			"source":1
		},
		{
			"sampler":0,
			"source":2
		}
	],
	"images":[
		{
			"bufferView":5,
			"mimeType":"image/jpeg",
			"name":"T_AirConditioning_N"
		},
		{
			"bufferView":6,
			"mimeType":"image/jpeg",
			"name":"T_AirConditioning_BC"
		},
		{
			"bufferView":7,
			"mimeType":"image/jpeg",
			"name":"T_AirConditioning_ORM"
		}
	],
	"accessors":[
		{
			"bufferView":0,
			"componentType":5126,
			"count":12828,
			"max":[
				63.89849853515625,
				298.4610290527344,
				428.8443603515625
			],
			"min":[
				-63.8985595703125,
				0.18979644775390625,
				-84.99105834960938
			],
			"type":"VEC3"
		},
		{
			"bufferView":1,
			"componentType":5126,
			"count":12828,
			"type":"VEC2"
		},
		{
			"bufferView":2,
			"componentType":5126,
			"count":12828,
			"type":"VEC2"
		},
		{
			"bufferView":3,
			"componentType":5126,
			"count":12828,
			"type":"VEC3"
		},
		{
			"bufferView":4,
			"componentType":5123,
			"count":38088,
			"type":"SCALAR"
		}
	],
	"bufferViews":[
		{
			"buffer":0,
			"byteLength":153936,
			"byteOffset":0,
			"target":34962
		},
		{
			"buffer":0,
			"byteLength":102624,
			"byteOffset":153936,
			"target":34962
		},
		{
			"buffer":0,
			"byteLength":102624,
			"byteOffset":256560,
			"target":34962
		},
		{
			"buffer":0,
			"byteLength":153936,
			"byteOffset":359184,
			"target":34962
		},
		{
			"buffer":0,
			"byteLength":76176,
			"byteOffset":513120,
			"target":34963
		},
		{
			"buffer":0,
			"byteLength":141308,
			"byteOffset":589296
		},
		{
			"buffer":0,
			"byteLength":451055,
			"byteOffset":730604
		},
		{
			"buffer":0,
			"byteLength":151543,
			"byteOffset":1181660
		}
	],
	"samplers":[
		{
			"magFilter":9729,
			"minFilter":9987
		}
	],
	"buffers":[
		{
			"byteLength":1333204,
			"uri":"data:application/octet-stream;base64,"
		}
	]
}
